<svg xmlns="http://www.w3.org/2000/svg" xmlns:xlink="http://www.w3.org/1999/xlink" width="800" zoomAndPan="magnify" viewBox="0 0 600 749.999995" height="1000" preserveAspectRatio="xMidYMid meet" version="1.0"><defs><g/><clipPath id="a54abffb7a"><path d="M 0 75 L 600 75 L 600 675 L 0 675 Z M 0 75 " clip-rule="nonzero"/></clipPath><clipPath id="359fd4fcdc"><path d="M 300 75 C 134.316406 75 0 209.316406 0 375 C 0 540.683594 134.316406 675 300 675 C 465.683594 675 600 540.683594 600 375 C 600 209.316406 465.683594 75 300 75 " clip-rule="nonzero"/></clipPath></defs><g clip-path="url(#a54abffb7a)"><g clip-path="url(#359fd4fcdc)"><path fill="#42acc7" d="M 0 75 L 600 75 L 600 675 L 0 675 Z M 0 75 " fill-opacity="1" fill-rule="nonzero"/></g></g><g fill="#f7f7f7" fill-opacity="1"><g transform="translate(191.30859, 342.750003)"><g><path d="M 64.515625 0 L 46.6875 0 L 22.9375 -35.859375 L 22.9375 0 L 5.09375 0 L 5.09375 -64.15625 L 22.9375 -64.15625 L 46.6875 -27.84375 L 46.6875 -64.15625 L 64.515625 -64.15625 Z M 64.515625 0 "/></g></g></g><g fill="#f7f7f7" fill-opacity="1"><g transform="translate(260.920594, 342.750003)"><g><path d="M 22.9375 -49.875 L 22.9375 -39.40625 L 43.40625 -39.40625 L 43.40625 -25.84375 L 22.9375 -25.84375 L 22.9375 -14.28125 L 46.140625 -14.28125 L 46.140625 0 L 5.09375 0 L 5.09375 -64.15625 L 46.140625 -64.15625 L 46.140625 -49.875 Z M 22.9375 -49.875 "/></g></g></g><g fill="#f7f7f7" fill-opacity="1"><g transform="translate(310.786448, 342.750003)"><g><path d="M 95.453125 -64.15625 L 79.71875 0 L 57.78125 0 L 48.953125 -39.3125 L 39.953125 0 L 18.015625 0 L 2.453125 -64.15625 L 21.75 -64.15625 L 29.21875 -20.296875 L 39.3125 -64.15625 L 58.875 -64.15625 L 68.703125 -20.65625 L 76.171875 -64.15625 Z M 95.453125 -64.15625 "/></g></g></g><g fill="#f7f7f7" fill-opacity="1"><g transform="translate(408.691392, 342.750003)"><g/></g></g><g fill="#f7f7f7" fill-opacity="1"><g transform="translate(81.562498, 469.499997)"><g><path d="M 45.6875 -10.46875 L 22.9375 -10.46875 L 19.46875 0 L 0.734375 0 L 24.109375 -64.15625 L 44.6875 -64.15625 L 67.984375 0 L 49.140625 0 Z M 41.21875 -24.109375 L 34.3125 -44.859375 L 27.484375 -24.109375 Z M 41.21875 -24.109375 "/></g></g></g><g fill="#f7f7f7" fill-opacity="1"><g transform="translate(150.264536, 469.499997)"><g><path d="M 37.578125 0 L 24.84375 -23.65625 L 22.9375 -23.65625 L 22.9375 0 L 5.09375 0 L 5.09375 -64.15625 L 33.21875 -64.15625 C 38.375 -64.15625 42.738281 -63.257812 46.3125 -61.46875 C 49.894531 -59.675781 52.59375 -57.21875 54.40625 -54.09375 C 56.226562 -50.96875 57.140625 -47.46875 57.140625 -43.59375 C 57.140625 -39.21875 55.941406 -35.378906 53.546875 -32.078125 C 51.148438 -28.773438 47.648438 -26.425781 43.046875 -25.03125 L 57.515625 0 Z M 22.9375 -35.859375 L 31.765625 -35.859375 C 34.191406 -35.859375 36.007812 -36.429688 37.21875 -37.578125 C 38.425781 -38.734375 39.03125 -40.40625 39.03125 -42.59375 C 39.03125 -44.65625 38.410156 -46.273438 37.171875 -47.453125 C 35.929688 -48.640625 34.128906 -49.234375 31.765625 -49.234375 L 22.9375 -49.234375 Z M 22.9375 -35.859375 "/></g></g></g><g fill="#f7f7f7" fill-opacity="1"><g transform="translate(210.412952, 469.499997)"><g><path d="M 37.578125 0 L 24.84375 -23.65625 L 22.9375 -23.65625 L 22.9375 0 L 5.09375 0 L 5.09375 -64.15625 L 33.21875 -64.15625 C 38.375 -64.15625 42.738281 -63.257812 46.3125 -61.46875 C 49.894531 -59.675781 52.59375 -57.21875 54.40625 -54.09375 C 56.226562 -50.96875 57.140625 -47.46875 57.140625 -43.59375 C 57.140625 -39.21875 55.941406 -35.378906 53.546875 -32.078125 C 51.148438 -28.773438 47.648438 -26.425781 43.046875 -25.03125 L 57.515625 0 Z M 22.9375 -35.859375 L 31.765625 -35.859375 C 34.191406 -35.859375 36.007812 -36.429688 37.21875 -37.578125 C 38.425781 -38.734375 39.03125 -40.40625 39.03125 -42.59375 C 39.03125 -44.65625 38.410156 -46.273438 37.171875 -47.453125 C 35.929688 -48.640625 34.128906 -49.234375 31.765625 -49.234375 L 22.9375 -49.234375 Z M 22.9375 -35.859375 "/></g></g></g><g fill="#f7f7f7" fill-opacity="1"><g transform="translate(270.561367, 469.499997)"><g><path d="M 22.9375 -64.15625 L 22.9375 0 L 5.09375 0 L 5.09375 -64.15625 Z M 22.9375 -64.15625 "/></g></g></g><g fill="#f7f7f7" fill-opacity="1"><g transform="translate(298.588152, 469.499997)"><g><path d="M 67.515625 -64.15625 L 45.40625 0 L 22.5625 0 L 0.359375 -64.15625 L 19.46875 -64.15625 L 34.03125 -17.84375 L 48.5 -64.15625 Z M 67.515625 -64.15625 "/></g></g></g><g fill="#f7f7f7" fill-opacity="1"><g transform="translate(366.562209, 469.499997)"><g><path d="M 45.6875 -10.46875 L 22.9375 -10.46875 L 19.46875 0 L 0.734375 0 L 24.109375 -64.15625 L 44.6875 -64.15625 L 67.984375 0 L 49.140625 0 Z M 41.21875 -24.109375 L 34.3125 -44.859375 L 27.484375 -24.109375 Z M 41.21875 -24.109375 "/></g></g></g><g fill="#f7f7f7" fill-opacity="1"><g transform="translate(435.264247, 469.499997)"><g><path d="M 22.9375 -13.65625 L 42.859375 -13.65625 L 42.859375 0 L 5.09375 0 L 5.09375 -64.15625 L 22.9375 -64.15625 Z M 22.9375 -13.65625 "/></g></g></g><g fill="#f7f7f7" fill-opacity="1"><g transform="translate(479.943307, 469.499997)"><g><path d="M 28.9375 -67.4375 L 26.84375 -24.03125 L 11.640625 -24.03125 L 9.5625 -67.4375 Z M 19.296875 0.734375 C 16.140625 0.734375 13.601562 -0.128906 11.6875 -1.859375 C 9.78125 -3.585938 8.828125 -5.789062 8.828125 -8.46875 C 8.828125 -11.132812 9.78125 -13.347656 11.6875 -15.109375 C 13.601562 -16.867188 16.140625 -17.75 19.296875 -17.75 C 22.390625 -17.75 24.890625 -16.867188 26.796875 -15.109375 C 28.710938 -13.347656 29.671875 -11.132812 29.671875 -8.46875 C 29.671875 -5.851562 28.710938 -3.664062 26.796875 -1.90625 C 24.890625 -0.144531 22.390625 0.734375 19.296875 0.734375 Z M 19.296875 0.734375 "/></g></g></g></svg>