<svg xmlns="http://www.w3.org/2000/svg" xmlns:xlink="http://www.w3.org/1999/xlink" width="800" zoomAndPan="magnify" viewBox="0 0 600 749.999995" height="1000" preserveAspectRatio="xMidYMid meet" version="1.0"><defs><g/></defs><g fill="#f7f7f7" fill-opacity="1"><g transform="translate(26.057476, 455.676619)"><g><path d="M 38.578125 -55.28125 C 34.097656 -55.28125 30.601562 -53.441406 28.09375 -49.765625 C 25.582031 -46.085938 24.328125 -41.023438 24.328125 -34.578125 C 24.328125 -21.160156 29.425781 -14.453125 39.625 -14.453125 C 42.707031 -14.453125 45.695312 -14.878906 48.59375 -15.734375 C 51.488281 -16.597656 54.398438 -17.632812 57.328125 -18.84375 L 57.328125 -2.90625 C 51.503906 -0.332031 44.921875 0.953125 37.578125 0.953125 C 27.054688 0.953125 18.988281 -2.097656 13.375 -8.203125 C 7.757812 -14.304688 4.953125 -23.128906 4.953125 -34.671875 C 4.953125 -41.890625 6.3125 -48.234375 9.03125 -53.703125 C 11.75 -59.171875 15.660156 -63.375 20.765625 -66.3125 C 25.867188 -69.25 31.867188 -70.71875 38.765625 -70.71875 C 46.304688 -70.71875 53.507812 -69.082031 60.375 -65.8125 L 54.609375 -50.984375 C 52.035156 -52.191406 49.457031 -53.207031 46.875 -54.03125 C 44.300781 -54.863281 41.535156 -55.28125 38.578125 -55.28125 Z M 38.578125 -55.28125 "/></g></g></g><g fill="#f7f7f7" fill-opacity="1"><g transform="translate(96.76009, 455.676619)"><g><path d="M 50.3125 0 L 46.875 -13.0625 L 24.234375 -13.0625 L 20.703125 0 L 0 0 L 22.75 -70.015625 L 47.875 -70.015625 L 70.921875 0 Z M 42.96875 -28.515625 L 39.96875 -39.96875 C 39.269531 -42.507812 38.414062 -45.796875 37.40625 -49.828125 C 36.40625 -53.867188 35.75 -56.765625 35.4375 -58.515625 C 35.144531 -56.890625 34.578125 -54.21875 33.734375 -50.5 C 32.898438 -46.78125 31.035156 -39.453125 28.140625 -28.515625 Z M 42.96875 -28.515625 "/></g></g></g><g fill="#f7f7f7" fill-opacity="1"><g transform="translate(174.997334, 455.676619)"><g><path d="M 26.375 -25.375 L 26.375 0 L 7.53125 0 L 7.53125 -69.71875 L 30.375 -69.71875 C 49.320312 -69.71875 58.796875 -62.851562 58.796875 -49.125 C 58.796875 -41.050781 54.851562 -34.800781 46.96875 -30.375 L 67.296875 0 L 45.921875 0 L 31.140625 -25.375 Z M 26.375 -39.53125 L 29.90625 -39.53125 C 36.488281 -39.53125 39.78125 -42.441406 39.78125 -48.265625 C 39.78125 -53.066406 36.550781 -55.46875 30.09375 -55.46875 L 26.375 -55.46875 Z M 26.375 -39.53125 "/></g></g></g><g fill="#f7f7f7" fill-opacity="1"><g transform="translate(248.418137, 455.676619)"><g><path d="M 37.921875 0 L 23.65625 -50.21875 L 23.21875 -50.21875 C 23.894531 -41.664062 24.234375 -35.019531 24.234375 -30.28125 L 24.234375 0 L 7.53125 0 L 7.53125 -69.71875 L 32.625 -69.71875 L 47.171875 -20.21875 L 47.546875 -20.21875 L 61.8125 -69.71875 L 86.9375 -69.71875 L 86.9375 0 L 69.625 0 L 69.625 -30.5625 C 69.625 -32.15625 69.644531 -33.921875 69.6875 -35.859375 C 69.738281 -37.796875 69.957031 -42.550781 70.34375 -50.125 L 69.921875 -50.125 L 55.84375 0 Z M 37.921875 0 "/></g></g></g><g fill="#f7f7f7" fill-opacity="1"><g transform="translate(350.165332, 455.676619)"><g><path d="M 7.53125 0 L 7.53125 -69.71875 L 26.46875 -69.71875 L 26.46875 0 Z M 7.53125 0 "/></g></g></g><g fill="#f7f7f7" fill-opacity="1"><g transform="translate(391.49244, 455.676619)"><g><path d="M 67.109375 0 L 45.828125 0 L 32.046875 -26.65625 L 26.46875 -23.328125 L 26.46875 0 L 7.53125 0 L 7.53125 -69.71875 L 26.46875 -69.71875 L 26.46875 -39.4375 C 27.425781 -41.3125 29.347656 -44.285156 32.234375 -48.359375 L 46.875 -69.71875 L 67.484375 -69.71875 L 45.5 -38.484375 Z M 67.109375 0 "/></g></g></g><g fill="#f7f7f7" fill-opacity="1"><g transform="translate(465.914693, 455.676619)"><g/></g></g><g fill="#f7f7f7" fill-opacity="1"><g transform="translate(498.61037, 455.676619)"><g><path d="M 7.53125 0 L 7.53125 -69.71875 L 26.46875 -69.71875 L 26.46875 0 Z M 7.53125 0 "/></g></g></g><g fill="#f7f7f7" fill-opacity="1"><g transform="translate(539.937455, 455.676619)"><g><path d="M 7.53125 0 L 7.53125 -69.71875 L 26.46875 -69.71875 L 26.46875 0 Z M 7.53125 0 "/></g></g></g><g fill="#f7f7f7" fill-opacity="1"><g transform="translate(72.466899, 322.60524)"><g><path d="M 49.59375 -58.421875 C 50.945312 -58.597656 52.320312 -58.207031 53.71875 -57.25 C 55.125 -56.300781 55.914062 -55.140625 56.09375 -53.765625 C 56.269531 -52.398438 56.160156 -50.570312 55.765625 -48.28125 C 55.367188 -45.988281 54.71875 -43.523438 53.8125 -40.890625 C 52.90625 -38.253906 51.742188 -35.492188 50.328125 -32.609375 C 48.910156 -29.722656 47.332031 -26.890625 45.59375 -24.109375 C 43.851562 -21.328125 41.890625 -18.648438 39.703125 -16.078125 C 37.523438 -13.515625 35.28125 -11.226562 32.96875 -9.21875 C 27.914062 -4.832031 22.742188 -2.289062 17.453125 -1.59375 C 15.628906 -1.351562 13.941406 -1.625 12.390625 -2.40625 C 10.835938 -3.1875 9.609375 -3.992188 8.703125 -4.828125 C 6.609375 -6.753906 5.3125 -9.628906 4.8125 -13.453125 C 4.3125 -17.273438 4.984375 -21.925781 6.828125 -27.40625 C 8.679688 -32.882812 11.5 -38.207031 15.28125 -43.375 C 19.0625 -48.539062 23.472656 -52.945312 28.515625 -56.59375 C 33.566406 -60.238281 38.546875 -62.382812 43.453125 -63.03125 C 44.410156 -63.15625 45.347656 -63.054688 46.265625 -62.734375 C 47.191406 -62.421875 47.691406 -61.976562 47.765625 -61.40625 C 47.835938 -60.84375 47.753906 -60.351562 47.515625 -59.9375 C 47.285156 -59.53125 47.070312 -59.101562 46.875 -58.65625 C 46.6875 -58.207031 46.515625 -57.878906 46.359375 -57.671875 C 47.171875 -57.992188 48.25 -58.242188 49.59375 -58.421875 Z M 37.703125 -38.953125 C 37.765625 -38.429688 37.613281 -38.144531 37.25 -38.09375 C 36.894531 -38.050781 36.078125 -38.570312 34.796875 -39.65625 C 33.523438 -40.75 32.835938 -41.710938 32.734375 -42.546875 C 32.472656 -44.503906 33.492188 -46.898438 35.796875 -49.734375 C 38.097656 -52.578125 40.773438 -54.851562 43.828125 -56.5625 C 40.296875 -55.894531 36.363281 -53.84375 32.03125 -50.40625 C 27.707031 -46.96875 24.046875 -43.03125 21.046875 -38.59375 C 18.046875 -34.164062 15.738281 -29.644531 14.125 -25.03125 C 12.519531 -20.425781 11.894531 -16.78125 12.25 -14.09375 C 12.46875 -12.445312 13.019531 -11.078125 13.90625 -9.984375 C 14.800781 -8.898438 16.128906 -8.472656 17.890625 -8.703125 C 19.648438 -8.941406 21.695312 -9.832031 24.03125 -11.375 C 26.363281 -12.925781 28.582031 -14.847656 30.6875 -17.140625 C 37.90625 -25.085938 43.253906 -33.5625 46.734375 -42.5625 C 48.117188 -46.257812 48.722656 -48.769531 48.546875 -50.09375 C 48.484375 -50.625 48.273438 -50.867188 47.921875 -50.828125 C 46.878906 -50.691406 45.488281 -49.832031 43.75 -48.25 C 42.019531 -46.664062 40.523438 -44.972656 39.265625 -43.171875 C 38.015625 -41.378906 37.4375 -40.125 37.53125 -39.40625 Z M 37.703125 -38.953125 "/></g></g></g><g fill="#f7f7f7" fill-opacity="1"><g transform="translate(122.212119, 316.062327)"><g><path d="M 30.265625 -33.8125 C 30.492188 -32.0625 29.851562 -29.375 28.34375 -25.75 C 26.832031 -22.132812 24.769531 -18.398438 22.15625 -14.546875 C 19.550781 -10.691406 16.703125 -7.273438 13.609375 -4.296875 C 10.515625 -1.316406 8.003906 0.296875 6.078125 0.546875 C 5.035156 0.679688 4.03125 0.429688 3.0625 -0.203125 C 2.101562 -0.847656 1.515625 -2.003906 1.296875 -3.671875 C 1.078125 -5.347656 1.519531 -8.078125 2.625 -11.859375 C 3.726562 -15.648438 4.878906 -18.878906 6.078125 -21.546875 C 4.859375 -20.378906 4.101562 -19.773438 3.8125 -19.734375 C 3.53125 -19.691406 3.117188 -19.96875 2.578125 -20.5625 C 2.046875 -21.164062 1.753906 -21.648438 1.703125 -22.015625 C 1.660156 -22.390625 1.691406 -22.675781 1.796875 -22.875 C 6.054688 -29.09375 9.222656 -32.335938 11.296875 -32.609375 C 12.148438 -32.722656 12.898438 -32.5625 13.546875 -32.125 C 14.203125 -31.695312 14.578125 -31.128906 14.671875 -30.421875 C 14.765625 -29.710938 14.171875 -27.550781 12.890625 -23.9375 C 11.617188 -20.332031 10.34375 -16.691406 9.0625 -13.015625 C 7.78125 -9.347656 7.203125 -7.070312 7.328125 -6.1875 C 7.347656 -6.03125 7.429688 -5.960938 7.578125 -5.984375 C 8.242188 -6.078125 9.851562 -7.628906 12.40625 -10.640625 C 14.96875 -13.648438 17 -16.40625 18.5 -18.90625 C 20.007812 -21.40625 21.289062 -23.882812 22.34375 -26.34375 C 23.40625 -28.8125 23.890625 -30.398438 23.796875 -31.109375 C 23.710938 -31.816406 23.492188 -32.382812 23.140625 -32.8125 C 22.785156 -33.25 22.570312 -33.742188 22.5 -34.296875 C 22.425781 -34.847656 22.71875 -35.503906 23.375 -36.265625 C 24.039062 -37.023438 24.957031 -37.484375 26.125 -37.640625 C 28.507812 -37.953125 29.890625 -36.675781 30.265625 -33.8125 Z M 30.265625 -33.8125 "/></g></g></g><g fill="#f7f7f7" fill-opacity="1"><g transform="translate(150.588985, 312.329961)"><g><path d="M 24.8125 -32.234375 C 25.03125 -30.566406 24.539062 -29.007812 23.34375 -27.5625 C 22.15625 -26.113281 20.703125 -25.273438 18.984375 -25.046875 C 18.421875 -24.972656 18.035156 -25.054688 17.828125 -25.296875 C 17.617188 -25.546875 17.484375 -25.882812 17.421875 -26.3125 C 17.367188 -26.75 17.367188 -27.175781 17.421875 -27.59375 C 16.535156 -27.175781 15.578125 -26.570312 14.546875 -25.78125 C 13.515625 -25 12.269531 -23.878906 10.8125 -22.421875 C 9.351562 -20.960938 8.664062 -19.925781 8.75 -19.3125 C 8.769531 -19.113281 9.078125 -19.050781 9.671875 -19.125 C 10.265625 -19.207031 11.15625 -19.539062 12.34375 -20.125 C 13.539062 -20.71875 14.382812 -21.046875 14.875 -21.109375 C 15.375 -21.171875 15.703125 -21.1875 15.859375 -21.15625 C 16.210938 -21.019531 16.617188 -20.675781 17.078125 -20.125 C 17.546875 -19.582031 17.800781 -19.140625 17.84375 -18.796875 C 17.882812 -18.453125 17.609375 -17.953125 17.015625 -17.296875 C 16.429688 -16.648438 15.738281 -16.128906 14.9375 -15.734375 C 14.132812 -15.335938 13.609375 -15.046875 13.359375 -14.859375 C 8.378906 -11.148438 5.96875 -8.738281 6.125 -7.625 C 6.382812 -5.644531 8.203125 -4.878906 11.578125 -5.328125 C 13.753906 -5.609375 15.835938 -6.578125 17.828125 -8.234375 C 19.515625 -9.648438 21.023438 -11.054688 22.359375 -12.453125 C 23.691406 -13.847656 24.535156 -14.710938 24.890625 -15.046875 C 25.242188 -15.378906 25.523438 -15.5625 25.734375 -15.59375 C 26.390625 -15.675781 26.8125 -14.976562 27 -13.5 C 27.195312 -12.03125 27.238281 -11.050781 27.125 -10.5625 C 27.019531 -10.070312 26.585938 -9.425781 25.828125 -8.625 C 20.984375 -3.5 16.140625 -0.613281 11.296875 0.03125 C 8.703125 0.363281 6.582031 0.28125 4.9375 -0.21875 C 1.914062 -1.132812 0.226562 -2.929688 -0.125 -5.609375 C -0.582031 -9.109375 1.5 -12.078125 6.125 -14.515625 C 5.09375 -14.816406 4.390625 -15.285156 4.015625 -15.921875 C 3.648438 -16.566406 3.367188 -17.628906 3.171875 -19.109375 C 2.984375 -20.597656 3.472656 -22.265625 4.640625 -24.109375 C 5.816406 -25.953125 7.332031 -27.539062 9.1875 -28.875 C 13.34375 -31.875 17.171875 -33.601562 20.671875 -34.0625 C 21.515625 -34.175781 22.390625 -34.085938 23.296875 -33.796875 C 24.210938 -33.503906 24.71875 -32.984375 24.8125 -32.234375 Z M 24.8125 -32.234375 "/></g></g></g><g fill="#f7f7f7" fill-opacity="1"><g transform="translate(175.347326, 309.073535)"><g><path d="M 12.09375 -22.71875 C 17.1875 -30.300781 21.835938 -34.375 26.046875 -34.9375 C 27.097656 -35.070312 28 -34.875 28.75 -34.34375 C 29.5 -33.8125 29.9375 -33.050781 30.0625 -32.0625 C 30.195312 -31.070312 29.710938 -29.316406 28.609375 -26.796875 C 27.515625 -24.285156 26.476562 -22.15625 25.5 -20.40625 C 24.957031 -19.5 24.285156 -18.992188 23.484375 -18.890625 C 22.691406 -18.785156 22.03125 -18.992188 21.5 -19.515625 C 20.976562 -20.046875 20.664062 -20.710938 20.5625 -21.515625 C 20.332031 -23.253906 21.015625 -25.351562 22.609375 -27.8125 L 22.53125 -27.875 C 21.695312 -27.695312 19.832031 -25.773438 16.9375 -22.109375 C 14.050781 -18.441406 11.613281 -15.179688 9.625 -12.328125 C 7.644531 -9.472656 5.535156 -6.035156 3.296875 -2.015625 C 2.660156 -0.828125 2.066406 -0.195312 1.515625 -0.125 C 0.972656 -0.0507812 0.226562 -0.125 -0.71875 -0.34375 C -1.664062 -0.5625 -2.242188 -0.734375 -2.453125 -0.859375 C -2.671875 -0.992188 -2.800781 -1.238281 -2.84375 -1.59375 C -2.894531 -1.957031 -2.847656 -2.382812 -2.703125 -2.875 C -2.566406 -3.375 -2.28125 -4.085938 -1.84375 -5.015625 C -1.414062 -5.953125 -0.773438 -7.457031 0.078125 -9.53125 C 0.929688 -11.613281 2.265625 -14.765625 4.078125 -18.984375 C 5.898438 -23.203125 6.992188 -25.75 7.359375 -26.625 C 8.097656 -28.425781 8.722656 -29.75 9.234375 -30.59375 C 10.191406 -32.1875 12.03125 -33.160156 14.75 -33.515625 C 15.351562 -33.597656 15.703125 -33.257812 15.796875 -32.5 C 15.953125 -31.300781 15.144531 -28.90625 13.375 -25.3125 Z M 12.09375 -22.71875 "/></g></g></g><g fill="#f7f7f7" fill-opacity="1"><g transform="translate(202.581501, 305.491466)"><g><path d="M 22.109375 -52.8125 L 23.71875 -52.65625 C 23.945312 -52.675781 24.164062 -52.582031 24.375 -52.375 C 24.59375 -52.175781 24.710938 -51.972656 24.734375 -51.765625 C 24.765625 -51.566406 24.570312 -50.988281 24.15625 -50.03125 C 23.738281 -49.070312 23.238281 -47.976562 22.65625 -46.75 C 22.082031 -45.519531 21.773438 -44.851562 21.734375 -44.75 C 23.691406 -45.164062 25.082031 -45.425781 25.90625 -45.53125 C 26.738281 -45.632812 27.316406 -45.648438 27.640625 -45.578125 C 27.960938 -45.503906 28.351562 -45.234375 28.8125 -44.765625 C 29.269531 -44.296875 29.679688 -43.945312 30.046875 -43.71875 C 30.410156 -43.5 30.628906 -43.125 30.703125 -42.59375 C 30.773438 -42.0625 30.507812 -41.566406 29.90625 -41.109375 C 29.3125 -40.660156 28.648438 -40.347656 27.921875 -40.171875 C 22.109375 -38.816406 18.898438 -38.085938 18.296875 -37.984375 C 16.648438 -34.554688 14.414062 -29.265625 11.59375 -22.109375 C 8.78125 -14.953125 7.367188 -10.53125 7.359375 -8.84375 C 7.359375 -8.050781 7.390625 -7.421875 7.453125 -6.953125 C 7.578125 -5.960938 8.160156 -5.535156 9.203125 -5.671875 C 10.253906 -5.816406 11.363281 -6.367188 12.53125 -7.328125 C 13.695312 -8.296875 14.75 -9.316406 15.6875 -10.390625 C 18.1875 -13.304688 19.539062 -14.78125 19.75 -14.8125 C 20.414062 -14.894531 20.898438 -13.789062 21.203125 -11.5 C 21.367188 -10.257812 20.941406 -9.066406 19.921875 -7.921875 C 17.648438 -5.378906 15.710938 -3.4375 14.109375 -2.09375 C 12.503906 -0.75 10.820312 0.0351562 9.0625 0.265625 C 8.675781 0.316406 8.316406 0.328125 7.984375 0.296875 C 5.890625 0.191406 4.296875 -0.347656 3.203125 -1.328125 C 2.109375 -2.316406 1.441406 -3.75 1.203125 -5.625 C 0.972656 -7.5 1.234375 -9.847656 1.984375 -12.671875 C 2.734375 -15.503906 3.753906 -18.539062 5.046875 -21.78125 C 7.128906 -27.0625 9.265625 -32.046875 11.453125 -36.734375 L 10.015625 -36.34375 C 7.109375 -35.625 5.414062 -35.234375 4.9375 -35.171875 L 4.59375 -35.125 C 3.863281 -35.03125 3.132812 -35.085938 2.40625 -35.296875 C 1.6875 -35.503906 1.296875 -35.820312 1.234375 -36.25 C 1.179688 -36.675781 1.3125 -37.113281 1.625 -37.5625 C 1.9375 -38.019531 2.117188 -38.367188 2.171875 -38.609375 C 2.273438 -39.191406 2.859375 -39.898438 3.921875 -40.734375 C 4.984375 -41.578125 5.804688 -42.054688 6.390625 -42.171875 C 6.972656 -42.285156 7.535156 -42.390625 8.078125 -42.484375 C 8.617188 -42.585938 9.222656 -42.691406 9.890625 -42.796875 C 10.554688 -42.910156 11.066406 -43 11.421875 -43.0625 L 14.84375 -43.671875 C 16.539062 -47.160156 17.726562 -49.410156 18.40625 -50.421875 C 19.09375 -51.441406 19.492188 -52.003906 19.609375 -52.109375 C 19.734375 -52.222656 19.984375 -52.300781 20.359375 -52.34375 Z M 22.109375 -52.8125 "/></g></g></g><g fill="#f7f7f7" fill-opacity="1"><g transform="translate(219.340992, 303.287115)"><g><path d="M 21.65625 -45.40625 C 21.84375 -43.957031 21.359375 -42.414062 20.203125 -40.78125 C 19.054688 -39.144531 17.753906 -38.226562 16.296875 -38.03125 C 14.835938 -37.84375 14.007812 -38.507812 13.8125 -40.03125 C 13.613281 -41.550781 14.0625 -43.085938 15.15625 -44.640625 C 16.257812 -46.191406 17.582031 -47.070312 19.125 -47.28125 C 19.820312 -47.363281 20.394531 -47.238281 20.84375 -46.90625 C 21.289062 -46.582031 21.5625 -46.082031 21.65625 -45.40625 Z M 19.859375 -11.328125 C 19.953125 -10.578125 19.953125 -10.023438 19.859375 -9.671875 C 18.953125 -6.960938 17.238281 -4.644531 14.71875 -2.71875 C 12.195312 -0.800781 9.929688 0.285156 7.921875 0.546875 C 5.921875 0.804688 4.109375 0.359375 2.484375 -0.796875 C 0.867188 -1.953125 -0.0234375 -3.222656 -0.203125 -4.609375 C -0.390625 -6.003906 0.0351562 -8.128906 1.078125 -10.984375 C 2.117188 -13.835938 3.191406 -16.484375 4.296875 -18.921875 C 5.398438 -21.367188 5.9375 -22.6875 5.90625 -22.875 C 5.882812 -23.070312 5.578125 -23.414062 4.984375 -23.90625 C 4.390625 -24.394531 4.070312 -24.769531 4.03125 -25.03125 C 4 -25.300781 4.429688 -26.070312 5.328125 -27.34375 C 6.234375 -28.613281 7.367188 -29.898438 8.734375 -31.203125 C 10.097656 -32.503906 11.175781 -33.207031 11.96875 -33.3125 C 12.769531 -33.425781 13.535156 -33.164062 14.265625 -32.53125 C 14.992188 -31.90625 15.394531 -31.300781 15.46875 -30.71875 C 15.550781 -30.132812 13.257812 -24.238281 8.59375 -13.03125 C 8.539062 -12.863281 8.375 -12.5 8.09375 -11.9375 C 7.820312 -11.375 7.609375 -10.90625 7.453125 -10.53125 C 7.304688 -10.164062 7.144531 -9.726562 6.96875 -9.21875 C 6.59375 -8.125 6.453125 -7.234375 6.546875 -6.546875 C 6.660156 -5.691406 7.300781 -5.34375 8.46875 -5.5 C 9.632812 -5.65625 10.789062 -6.210938 11.9375 -7.171875 C 13.09375 -8.128906 14.0625 -9.15625 14.84375 -10.25 C 16.894531 -13.125 18.085938 -14.582031 18.421875 -14.625 C 19.078125 -14.71875 19.554688 -13.617188 19.859375 -11.328125 Z M 19.859375 -11.328125 "/></g></g></g><g fill="#f7f7f7" fill-opacity="1"><g transform="translate(235.14824, 301.208012)"><g><path d="M 2.390625 -0.078125 L 0.515625 0.09375 L -0.171875 0.1875 C -0.441406 0.132812 -0.734375 0.015625 -1.046875 -0.171875 C -1.359375 -0.367188 -1.597656 -0.503906 -1.765625 -0.578125 C -1.941406 -0.648438 -2.046875 -0.820312 -2.078125 -1.09375 C -2.117188 -1.363281 -2.078125 -1.84375 -1.953125 -2.53125 C 1.554688 -14.070312 5.195312 -23.410156 8.96875 -30.546875 C 9.382812 -31.328125 10.132812 -31.972656 11.21875 -32.484375 C 12.300781 -33.003906 13.375 -33.335938 14.4375 -33.484375 C 15.070312 -33.566406 15.453125 -33.113281 15.578125 -32.125 C 15.617188 -31.84375 15.566406 -31.453125 15.421875 -30.953125 C 15.285156 -30.460938 14.878906 -29.628906 14.203125 -28.453125 C 13.523438 -27.273438 12.71875 -25.925781 11.78125 -24.40625 C 10.84375 -22.894531 10.316406 -22.023438 10.203125 -21.796875 C 13.203125 -25.867188 15.988281 -28.96875 18.5625 -31.09375 C 21.132812 -33.226562 23.046875 -34.378906 24.296875 -34.546875 C 25.554688 -34.710938 26.570312 -34.476562 27.34375 -33.84375 C 28.113281 -33.207031 28.550781 -32.476562 28.65625 -31.65625 C 28.769531 -30.832031 28.800781 -30.140625 28.75 -29.578125 C 28.707031 -29.015625 28.578125 -28.410156 28.359375 -27.765625 C 28.140625 -27.128906 27.945312 -26.585938 27.78125 -26.140625 C 27.613281 -25.703125 27.316406 -25.113281 26.890625 -24.375 C 26.472656 -23.632812 26.1875 -23.125 26.03125 -22.84375 C 25.882812 -22.5625 25.554688 -22.023438 25.046875 -21.234375 C 24.535156 -20.453125 24.265625 -20.015625 24.234375 -19.921875 C 24.859375 -20.722656 25.710938 -21.90625 26.796875 -23.46875 C 27.878906 -25.039062 28.789062 -26.351562 29.53125 -27.40625 C 30.28125 -28.457031 31.238281 -29.660156 32.40625 -31.015625 C 33.582031 -32.378906 34.691406 -33.503906 35.734375 -34.390625 C 38.253906 -36.472656 40.925781 -37.695312 43.75 -38.0625 C 44.71875 -38.195312 45.570312 -38 46.3125 -37.46875 C 47.050781 -36.945312 47.472656 -36.257812 47.578125 -35.40625 C 47.691406 -34.5625 46.929688 -32.394531 45.296875 -28.90625 C 43.660156 -25.425781 42.03125 -21.9375 40.40625 -18.4375 C 38.78125 -14.9375 38.023438 -12.765625 38.140625 -11.921875 C 38.296875 -10.753906 38.601562 -10.09375 39.0625 -9.9375 C 39.53125 -9.78125 40.066406 -9.765625 40.671875 -9.890625 C 41.273438 -10.015625 42.078125 -10.515625 43.078125 -11.390625 C 44.085938 -12.273438 44.972656 -13.171875 45.734375 -14.078125 C 46.960938 -15.523438 48.09375 -16.925781 49.125 -18.28125 C 49.351562 -18.539062 49.625 -18.691406 49.9375 -18.734375 C 50.40625 -18.796875 50.738281 -18.46875 50.9375 -17.75 C 51.144531 -17.03125 51.300781 -16.273438 51.40625 -15.484375 C 51.507812 -14.691406 51.503906 -14.132812 51.390625 -13.8125 C 50.847656 -12.289062 49.453125 -10.332031 47.203125 -7.9375 C 44.960938 -5.550781 42.6875 -4.207031 40.375 -3.90625 C 40.09375 -3.875 39.882812 -3.863281 39.75 -3.875 C 37.101562 -3.789062 35.195312 -4.269531 34.03125 -5.3125 C 32.875 -6.363281 32.1875 -7.703125 31.96875 -9.328125 C 31.757812 -10.953125 32.054688 -12.988281 32.859375 -15.4375 C 33.660156 -17.894531 34.597656 -20.148438 35.671875 -22.203125 C 36.742188 -24.253906 37.734375 -26.109375 38.640625 -27.765625 C 39.546875 -29.421875 39.988281 -30.3125 39.96875 -30.4375 C 39.957031 -30.570312 39.847656 -30.625 39.640625 -30.59375 C 38.859375 -30.488281 37.273438 -28.988281 34.890625 -26.09375 C 30.816406 -21.132812 27.359375 -16.414062 24.515625 -11.9375 C 23.765625 -10.757812 22.007812 -7.785156 19.25 -3.015625 C 18.945312 -2.441406 18.378906 -2.097656 17.546875 -1.984375 C 16.722656 -1.878906 15.84375 -1.925781 14.90625 -2.125 C 13.976562 -2.332031 13.476562 -2.6875 13.40625 -3.1875 C 13.375 -3.445312 14.925781 -7.273438 18.0625 -14.671875 C 21.195312 -22.078125 22.722656 -26.085938 22.640625 -26.703125 C 22.566406 -27.328125 22.15625 -27.59375 21.40625 -27.5 C 20.65625 -27.40625 19.257812 -26.082031 17.21875 -23.53125 C 11.59375 -16.550781 7.414062 -9.789062 4.6875 -3.25 C 4.5 -2.863281 4.128906 -2.242188 3.578125 -1.390625 C 3.023438 -0.546875 2.628906 -0.109375 2.390625 -0.078125 Z M 2.390625 -0.078125 "/></g></g></g><g fill="#f7f7f7" fill-opacity="1"><g transform="translate(282.608063, 294.965694)"><g><path d="M 24.8125 -32.234375 C 25.03125 -30.566406 24.539062 -29.007812 23.34375 -27.5625 C 22.15625 -26.113281 20.703125 -25.273438 18.984375 -25.046875 C 18.421875 -24.972656 18.035156 -25.054688 17.828125 -25.296875 C 17.617188 -25.546875 17.484375 -25.882812 17.421875 -26.3125 C 17.367188 -26.75 17.367188 -27.175781 17.421875 -27.59375 C 16.535156 -27.175781 15.578125 -26.570312 14.546875 -25.78125 C 13.515625 -25 12.269531 -23.878906 10.8125 -22.421875 C 9.351562 -20.960938 8.664062 -19.925781 8.75 -19.3125 C 8.769531 -19.113281 9.078125 -19.050781 9.671875 -19.125 C 10.265625 -19.207031 11.15625 -19.539062 12.34375 -20.125 C 13.539062 -20.71875 14.382812 -21.046875 14.875 -21.109375 C 15.375 -21.171875 15.703125 -21.1875 15.859375 -21.15625 C 16.210938 -21.019531 16.617188 -20.675781 17.078125 -20.125 C 17.546875 -19.582031 17.800781 -19.140625 17.84375 -18.796875 C 17.882812 -18.453125 17.609375 -17.953125 17.015625 -17.296875 C 16.429688 -16.648438 15.738281 -16.128906 14.9375 -15.734375 C 14.132812 -15.335938 13.609375 -15.046875 13.359375 -14.859375 C 8.378906 -11.148438 5.96875 -8.738281 6.125 -7.625 C 6.382812 -5.644531 8.203125 -4.878906 11.578125 -5.328125 C 13.753906 -5.609375 15.835938 -6.578125 17.828125 -8.234375 C 19.515625 -9.648438 21.023438 -11.054688 22.359375 -12.453125 C 23.691406 -13.847656 24.535156 -14.710938 24.890625 -15.046875 C 25.242188 -15.378906 25.523438 -15.5625 25.734375 -15.59375 C 26.390625 -15.675781 26.8125 -14.976562 27 -13.5 C 27.195312 -12.03125 27.238281 -11.050781 27.125 -10.5625 C 27.019531 -10.070312 26.585938 -9.425781 25.828125 -8.625 C 20.984375 -3.5 16.140625 -0.613281 11.296875 0.03125 C 8.703125 0.363281 6.582031 0.28125 4.9375 -0.21875 C 1.914062 -1.132812 0.226562 -2.929688 -0.125 -5.609375 C -0.582031 -9.109375 1.5 -12.078125 6.125 -14.515625 C 5.09375 -14.816406 4.390625 -15.285156 4.015625 -15.921875 C 3.648438 -16.566406 3.367188 -17.628906 3.171875 -19.109375 C 2.984375 -20.597656 3.472656 -22.265625 4.640625 -24.109375 C 5.816406 -25.953125 7.332031 -27.539062 9.1875 -28.875 C 13.34375 -31.875 17.171875 -33.601562 20.671875 -34.0625 C 21.515625 -34.175781 22.390625 -34.085938 23.296875 -33.796875 C 24.210938 -33.503906 24.71875 -32.984375 24.8125 -32.234375 Z M 24.8125 -32.234375 "/></g></g></g><g fill="#f7f7f7" fill-opacity="1"><g transform="translate(307.366403, 291.709268)"><g/></g></g><g fill="#f7f7f7" fill-opacity="1"><g transform="translate(323.55456, 289.580064)"><g><path d="M 46.1875 -60.453125 C 46.738281 -62.304688 47.179688 -63.253906 47.515625 -63.296875 L 47.71875 -63.328125 C 48.09375 -63.378906 48.914062 -63.070312 50.1875 -62.40625 C 51.46875 -61.738281 52.15625 -61.050781 52.25 -60.34375 C 52.375 -59.351562 50.128906 -51.257812 45.515625 -36.0625 C 40.898438 -20.863281 38.226562 -12.328125 37.5 -10.453125 C 36.78125 -8.585938 36.28125 -7.335938 36 -6.703125 C 35.726562 -6.078125 35.335938 -5.367188 34.828125 -4.578125 C 33.910156 -3.085938 32.632812 -2.238281 31 -2.03125 C 30.34375 -1.9375 29.769531 -1.773438 29.28125 -1.546875 C 28.789062 -1.316406 28.5 -1.191406 28.40625 -1.171875 C 27.59375 -1.066406 27.160156 -1.207031 27.109375 -1.59375 C 27.097656 -1.664062 27.164062 -1.988281 27.3125 -2.5625 C 27.457031 -3.132812 29.546875 -9.679688 33.578125 -22.203125 C 27.585938 -21.648438 22.320312 -21.140625 17.78125 -20.671875 C 14.144531 -14.640625 10.960938 -8.410156 8.234375 -1.984375 C 7.910156 -1.078125 7.578125 -0.425781 7.234375 -0.03125 C 6.898438 0.351562 6.398438 0.585938 5.734375 0.671875 C 5.078125 0.765625 4.328125 0.523438 3.484375 -0.046875 C 2.640625 -0.617188 2.160156 -1.347656 2.046875 -2.234375 C 1.710938 -4.773438 4.265625 -10.644531 9.703125 -19.84375 C 6.628906 -19.4375 4.691406 -19.097656 3.890625 -18.828125 C 3.085938 -18.566406 2.566406 -18.421875 2.328125 -18.390625 C 1.648438 -18.304688 1.234375 -18.84375 1.078125 -20 C 0.929688 -21.15625 1.476562 -22.257812 2.71875 -23.3125 C 3.96875 -24.375 5.734375 -25.054688 8.015625 -25.359375 C 8.203125 -25.378906 8.519531 -25.429688 8.96875 -25.515625 C 10.53125 -25.804688 12.132812 -26.085938 13.78125 -26.359375 C 18.457031 -33.578125 23.453125 -40.363281 28.765625 -46.71875 C 34.078125 -53.070312 38.796875 -57.65625 42.921875 -60.46875 C 43.585938 -60.925781 44.128906 -61.175781 44.546875 -61.21875 C 44.972656 -61.257812 45.519531 -61.003906 46.1875 -60.453125 Z M 44.21875 -54.71875 C 35.882812 -46.46875 28.46875 -37.375 21.96875 -27.4375 C 26.46875 -27.914062 31.039062 -28.316406 35.6875 -28.640625 C 39.03125 -38.972656 41.875 -47.664062 44.21875 -54.71875 Z M 44.21875 -54.71875 "/></g></g></g><g fill="#f7f7f7" fill-opacity="1"><g transform="translate(369.376546, 283.553169)"><g><path d="M 18.25 -43.625 L 18.921875 -43.796875 C 19.296875 -43.847656 19.640625 -43.554688 19.953125 -42.921875 C 20.273438 -42.296875 20.453125 -41.867188 20.484375 -41.640625 C 20.515625 -41.410156 20.316406 -40.945312 19.890625 -40.25 L 11.203125 -22.28125 C 14.515625 -26.59375 18.023438 -29.882812 21.734375 -32.15625 C 23.171875 -33.019531 24.503906 -33.53125 25.734375 -33.6875 C 26.960938 -33.851562 28 -33.582031 28.84375 -32.875 C 29.695312 -32.175781 30.203125 -31.226562 30.359375 -30.03125 C 30.523438 -28.84375 30.390625 -27.328125 29.953125 -25.484375 C 29.523438 -23.648438 28.875 -21.664062 28 -19.53125 C 27.132812 -17.40625 26.03125 -15.226562 24.6875 -13 C 23.34375 -10.78125 21.894531 -8.742188 20.34375 -6.890625 C 18.789062 -5.035156 17.035156 -3.460938 15.078125 -2.171875 C 13.128906 -0.890625 11.375 -0.144531 9.8125 0.0625 C 6.625 0.476562 4.835938 -0.769531 4.453125 -3.6875 C 2.097656 1.238281 -0.613281 7.070312 -3.6875 13.8125 C -6.757812 20.550781 -8.410156 24.113281 -8.640625 24.5 C -8.867188 24.894531 -9.078125 25.101562 -9.265625 25.125 C -9.460938 25.15625 -9.769531 25.078125 -10.1875 24.890625 C -10.613281 24.710938 -11.078125 24.382812 -11.578125 23.90625 C -12.085938 23.4375 -12.414062 22.695312 -12.5625 21.6875 C -12.707031 20.675781 -12.539062 19.609375 -12.0625 18.484375 C -9.382812 12.328125 -4.191406 0.710938 3.515625 -16.359375 C 11.234375 -33.441406 15.457031 -42.300781 16.1875 -42.9375 C 16.613281 -43.3125 17.050781 -43.523438 17.5 -43.578125 Z M 23.890625 -26.546875 C 23.828125 -27.085938 23.546875 -27.320312 23.046875 -27.25 C 21.671875 -27.070312 19.039062 -24.582031 15.15625 -19.78125 C 11.28125 -14.976562 8.265625 -10.671875 6.109375 -6.859375 C 6.878906 -6.117188 7.910156 -5.832031 9.203125 -6 C 10.492188 -6.175781 12.078125 -7.097656 13.953125 -8.765625 C 15.828125 -10.429688 17.515625 -12.335938 19.015625 -14.484375 C 20.515625 -16.640625 21.742188 -18.851562 22.703125 -21.125 C 23.671875 -23.394531 24.066406 -25.203125 23.890625 -26.546875 Z M 23.890625 -26.546875 "/></g></g></g><g fill="#f7f7f7" fill-opacity="1"><g transform="translate(399.886428, 279.540251)"><g><path d="M 18.25 -43.625 L 18.921875 -43.796875 C 19.296875 -43.847656 19.640625 -43.554688 19.953125 -42.921875 C 20.273438 -42.296875 20.453125 -41.867188 20.484375 -41.640625 C 20.515625 -41.410156 20.316406 -40.945312 19.890625 -40.25 L 11.203125 -22.28125 C 14.515625 -26.59375 18.023438 -29.882812 21.734375 -32.15625 C 23.171875 -33.019531 24.503906 -33.53125 25.734375 -33.6875 C 26.960938 -33.851562 28 -33.582031 28.84375 -32.875 C 29.695312 -32.175781 30.203125 -31.226562 30.359375 -30.03125 C 30.523438 -28.84375 30.390625 -27.328125 29.953125 -25.484375 C 29.523438 -23.648438 28.875 -21.664062 28 -19.53125 C 27.132812 -17.40625 26.03125 -15.226562 24.6875 -13 C 23.34375 -10.78125 21.894531 -8.742188 20.34375 -6.890625 C 18.789062 -5.035156 17.035156 -3.460938 15.078125 -2.171875 C 13.128906 -0.890625 11.375 -0.144531 9.8125 0.0625 C 6.625 0.476562 4.835938 -0.769531 4.453125 -3.6875 C 2.097656 1.238281 -0.613281 7.070312 -3.6875 13.8125 C -6.757812 20.550781 -8.410156 24.113281 -8.640625 24.5 C -8.867188 24.894531 -9.078125 25.101562 -9.265625 25.125 C -9.460938 25.15625 -9.769531 25.078125 -10.1875 24.890625 C -10.613281 24.710938 -11.078125 24.382812 -11.578125 23.90625 C -12.085938 23.4375 -12.414062 22.695312 -12.5625 21.6875 C -12.707031 20.675781 -12.539062 19.609375 -12.0625 18.484375 C -9.382812 12.328125 -4.191406 0.710938 3.515625 -16.359375 C 11.234375 -33.441406 15.457031 -42.300781 16.1875 -42.9375 C 16.613281 -43.3125 17.050781 -43.523438 17.5 -43.578125 Z M 23.890625 -26.546875 C 23.828125 -27.085938 23.546875 -27.320312 23.046875 -27.25 C 21.671875 -27.070312 19.039062 -24.582031 15.15625 -19.78125 C 11.28125 -14.976562 8.265625 -10.671875 6.109375 -6.859375 C 6.878906 -6.117188 7.910156 -5.832031 9.203125 -6 C 10.492188 -6.175781 12.078125 -7.097656 13.953125 -8.765625 C 15.828125 -10.429688 17.515625 -12.335938 19.015625 -14.484375 C 20.515625 -16.640625 21.742188 -18.851562 22.703125 -21.125 C 23.671875 -23.394531 24.066406 -25.203125 23.890625 -26.546875 Z M 23.890625 -26.546875 "/></g></g></g><g fill="#f7f7f7" fill-opacity="1"><g transform="translate(430.396309, 275.527333)"><g><path d="M 27.625 -33.09375 C 29.550781 -33.34375 30.601562 -32.804688 30.78125 -31.484375 C 30.875 -30.773438 30.773438 -30.234375 30.484375 -29.859375 C 30.203125 -29.484375 29.640625 -28.289062 28.796875 -26.28125 C 27.960938 -24.269531 27.082031 -21.722656 26.15625 -18.640625 C 25.238281 -15.566406 24.722656 -12.972656 24.609375 -10.859375 C 24.566406 -10.609375 24.578125 -10.253906 24.640625 -9.796875 C 24.816406 -8.398438 25.285156 -7.75 26.046875 -7.84375 C 26.816406 -7.945312 27.671875 -8.425781 28.609375 -9.28125 C 29.554688 -10.132812 30.382812 -11.03125 31.09375 -11.96875 C 31.800781 -12.90625 32.484375 -13.859375 33.140625 -14.828125 C 33.796875 -15.796875 34.191406 -16.347656 34.328125 -16.484375 C 34.460938 -16.628906 34.6875 -16.722656 35 -16.765625 C 35.46875 -16.828125 35.800781 -16.5 36 -15.78125 C 36.207031 -15.0625 36.363281 -14.304688 36.46875 -13.515625 C 36.570312 -12.722656 36.566406 -12.171875 36.453125 -11.859375 C 35.910156 -10.296875 34.519531 -8.335938 32.28125 -5.984375 C 30.050781 -3.628906 27.914062 -2.316406 25.875 -2.046875 C 23.832031 -1.785156 22.242188 -2.210938 21.109375 -3.328125 C 19.984375 -4.441406 19.320312 -5.753906 19.125 -7.265625 C 18.925781 -8.773438 19.003906 -10.132812 19.359375 -11.34375 C 17.609375 -8.320312 15.492188 -5.679688 13.015625 -3.421875 C 10.535156 -1.160156 8.429688 0.0820312 6.703125 0.3125 C 4.984375 0.539062 3.507812 0.203125 2.28125 -0.703125 C 0.707031 -1.804688 -0.226562 -3.503906 -0.53125 -5.796875 C -0.832031 -8.097656 -0.625 -10.476562 0.09375 -12.9375 C 0.820312 -15.394531 1.894531 -17.691406 3.3125 -19.828125 C 4.738281 -21.960938 6.351562 -23.957031 8.15625 -25.8125 C 11.9375 -29.664062 15.601562 -31.828125 19.15625 -32.296875 C 20.53125 -32.472656 21.675781 -32.390625 22.59375 -32.046875 C 23.519531 -31.703125 24.144531 -31.203125 24.46875 -30.546875 C 24.945312 -31.523438 25.378906 -32.164062 25.765625 -32.46875 C 26.160156 -32.769531 26.78125 -32.976562 27.625 -33.09375 Z M 23.109375 -28.1875 C 18.765625 -27.613281 14.585938 -24.609375 10.578125 -19.171875 C 9.148438 -17.222656 7.90625 -14.953125 6.84375 -12.359375 C 5.78125 -9.773438 5.304688 -8.035156 5.421875 -7.140625 C 5.535156 -6.253906 5.84375 -5.84375 6.34375 -5.90625 C 7.0625 -6 8.859375 -7.664062 11.734375 -10.90625 C 14.617188 -14.144531 16.507812 -16.492188 17.40625 -17.953125 C 18.375 -19.566406 20.273438 -22.976562 23.109375 -28.1875 Z M 23.109375 -28.1875 "/></g></g></g><g fill="#f7f7f7" fill-opacity="1"><g transform="translate(462.163142, 271.34909)"><g><path d="M 12.09375 -22.71875 C 17.1875 -30.300781 21.835938 -34.375 26.046875 -34.9375 C 27.097656 -35.070312 28 -34.875 28.75 -34.34375 C 29.5 -33.8125 29.9375 -33.050781 30.0625 -32.0625 C 30.195312 -31.070312 29.710938 -29.316406 28.609375 -26.796875 C 27.515625 -24.285156 26.476562 -22.15625 25.5 -20.40625 C 24.957031 -19.5 24.285156 -18.992188 23.484375 -18.890625 C 22.691406 -18.785156 22.03125 -18.992188 21.5 -19.515625 C 20.976562 -20.046875 20.664062 -20.710938 20.5625 -21.515625 C 20.332031 -23.253906 21.015625 -25.351562 22.609375 -27.8125 L 22.53125 -27.875 C 21.695312 -27.695312 19.832031 -25.773438 16.9375 -22.109375 C 14.050781 -18.441406 11.613281 -15.179688 9.625 -12.328125 C 7.644531 -9.472656 5.535156 -6.035156 3.296875 -2.015625 C 2.660156 -0.828125 2.066406 -0.195312 1.515625 -0.125 C 0.972656 -0.0507812 0.226562 -0.125 -0.71875 -0.34375 C -1.664062 -0.5625 -2.242188 -0.734375 -2.453125 -0.859375 C -2.671875 -0.992188 -2.800781 -1.238281 -2.84375 -1.59375 C -2.894531 -1.957031 -2.847656 -2.382812 -2.703125 -2.875 C -2.566406 -3.375 -2.28125 -4.085938 -1.84375 -5.015625 C -1.414062 -5.953125 -0.773438 -7.457031 0.078125 -9.53125 C 0.929688 -11.613281 2.265625 -14.765625 4.078125 -18.984375 C 5.898438 -23.203125 6.992188 -25.75 7.359375 -26.625 C 8.097656 -28.425781 8.722656 -29.75 9.234375 -30.59375 C 10.191406 -32.1875 12.03125 -33.160156 14.75 -33.515625 C 15.351562 -33.597656 15.703125 -33.257812 15.796875 -32.5 C 15.953125 -31.300781 15.144531 -28.90625 13.375 -25.3125 Z M 12.09375 -22.71875 "/></g></g></g><g fill="#f7f7f7" fill-opacity="1"><g transform="translate(489.397327, 267.767019)"><g><path d="M 24.8125 -32.234375 C 25.03125 -30.566406 24.539062 -29.007812 23.34375 -27.5625 C 22.15625 -26.113281 20.703125 -25.273438 18.984375 -25.046875 C 18.421875 -24.972656 18.035156 -25.054688 17.828125 -25.296875 C 17.617188 -25.546875 17.484375 -25.882812 17.421875 -26.3125 C 17.367188 -26.75 17.367188 -27.175781 17.421875 -27.59375 C 16.535156 -27.175781 15.578125 -26.570312 14.546875 -25.78125 C 13.515625 -25 12.269531 -23.878906 10.8125 -22.421875 C 9.351562 -20.960938 8.664062 -19.925781 8.75 -19.3125 C 8.769531 -19.113281 9.078125 -19.050781 9.671875 -19.125 C 10.265625 -19.207031 11.15625 -19.539062 12.34375 -20.125 C 13.539062 -20.71875 14.382812 -21.046875 14.875 -21.109375 C 15.375 -21.171875 15.703125 -21.1875 15.859375 -21.15625 C 16.210938 -21.019531 16.617188 -20.675781 17.078125 -20.125 C 17.546875 -19.582031 17.800781 -19.140625 17.84375 -18.796875 C 17.882812 -18.453125 17.609375 -17.953125 17.015625 -17.296875 C 16.429688 -16.648438 15.738281 -16.128906 14.9375 -15.734375 C 14.132812 -15.335938 13.609375 -15.046875 13.359375 -14.859375 C 8.378906 -11.148438 5.96875 -8.738281 6.125 -7.625 C 6.382812 -5.644531 8.203125 -4.878906 11.578125 -5.328125 C 13.753906 -5.609375 15.835938 -6.578125 17.828125 -8.234375 C 19.515625 -9.648438 21.023438 -11.054688 22.359375 -12.453125 C 23.691406 -13.847656 24.535156 -14.710938 24.890625 -15.046875 C 25.242188 -15.378906 25.523438 -15.5625 25.734375 -15.59375 C 26.390625 -15.675781 26.8125 -14.976562 27 -13.5 C 27.195312 -12.03125 27.238281 -11.050781 27.125 -10.5625 C 27.019531 -10.070312 26.585938 -9.425781 25.828125 -8.625 C 20.984375 -3.5 16.140625 -0.613281 11.296875 0.03125 C 8.703125 0.363281 6.582031 0.28125 4.9375 -0.21875 C 1.914062 -1.132812 0.226562 -2.929688 -0.125 -5.609375 C -0.582031 -9.109375 1.5 -12.078125 6.125 -14.515625 C 5.09375 -14.816406 4.390625 -15.285156 4.015625 -15.921875 C 3.648438 -16.566406 3.367188 -17.628906 3.171875 -19.109375 C 2.984375 -20.597656 3.472656 -22.265625 4.640625 -24.109375 C 5.816406 -25.953125 7.332031 -27.539062 9.1875 -28.875 C 13.34375 -31.875 17.171875 -33.601562 20.671875 -34.0625 C 21.515625 -34.175781 22.390625 -34.085938 23.296875 -33.796875 C 24.210938 -33.503906 24.71875 -32.984375 24.8125 -32.234375 Z M 24.8125 -32.234375 "/></g></g></g><g fill="#f7f7f7" fill-opacity="1"><g transform="translate(514.155645, 264.510596)"><g><path d="M 26.421875 -61.640625 C 27.640625 -61.796875 28.757812 -61.570312 29.78125 -60.96875 C 30.800781 -60.375 31.40625 -59.363281 31.59375 -57.9375 C 31.78125 -56.507812 31.285156 -54.175781 30.109375 -50.9375 C 28.929688 -47.707031 27.445312 -44.363281 25.65625 -40.90625 C 23.863281 -37.445312 21.800781 -33.757812 19.46875 -29.84375 C 15.789062 -23.625 12.21875 -18.003906 8.75 -12.984375 C 8.757812 -12.660156 8.726562 -12.078125 8.65625 -11.234375 C 8.582031 -10.390625 8.597656 -9.546875 8.703125 -8.703125 C 8.816406 -7.867188 9.300781 -7.164062 10.15625 -6.59375 C 11.019531 -6.019531 12.019531 -5.804688 13.15625 -5.953125 C 14.300781 -6.109375 15.472656 -6.675781 16.671875 -7.65625 C 17.878906 -8.632812 18.90625 -9.6875 19.75 -10.8125 C 21.9375 -13.757812 23.332031 -15.273438 23.9375 -15.359375 C 24.550781 -15.441406 24.976562 -14.554688 25.21875 -12.703125 L 25.328125 -11.9375 C 25.453125 -10.945312 25.367188 -10.203125 25.078125 -9.703125 C 23.285156 -6.796875 21.140625 -4.523438 18.640625 -2.890625 C 16.148438 -1.265625 13.710938 -0.296875 11.328125 0.015625 C 8.941406 0.328125 7.03125 -0.160156 5.59375 -1.453125 C 4.15625 -2.742188 3.269531 -4.660156 2.9375 -7.203125 C 2.28125 -12.148438 2.835938 -18.144531 4.609375 -25.1875 C 6.390625 -32.226562 8.632812 -38.316406 11.34375 -43.453125 C 17.4375 -55.054688 22.460938 -61.117188 26.421875 -61.640625 Z M 25.53125 -55.09375 C 25.476562 -55.476562 25.328125 -55.65625 25.078125 -55.625 C 24.191406 -55.507812 22.1875 -52.660156 19.0625 -47.078125 C 15.945312 -41.492188 13.742188 -37.082031 12.453125 -33.84375 C 11.171875 -30.601562 10.078125 -26.597656 9.171875 -21.828125 C 11.710938 -25.773438 15.128906 -31.859375 19.421875 -40.078125 C 23.722656 -48.304688 25.757812 -53.3125 25.53125 -55.09375 Z M 25.53125 -55.09375 "/></g></g></g><g fill="#f7f7f7" fill-opacity="1"><g transform="translate(198.547065, 520.881619)"><g><path d="M 4.125 -1.8125 L 10.125 -1.8125 L 10.125 0 L 1.890625 0 L 1.890625 -17.125 L 4.125 -17.125 Z M 4.125 -1.8125 "/></g></g></g><g fill="#f7f7f7" fill-opacity="1"><g transform="translate(211.007276, 520.881619)"><g><path d="M 3.046875 -15.65625 C 2.617188 -15.65625 2.257812 -15.800781 1.96875 -16.09375 C 1.675781 -16.394531 1.53125 -16.757812 1.53125 -17.1875 C 1.53125 -17.601562 1.675781 -17.957031 1.96875 -18.25 C 2.257812 -18.550781 2.617188 -18.703125 3.046875 -18.703125 C 3.453125 -18.703125 3.796875 -18.550781 4.078125 -18.25 C 4.367188 -17.957031 4.515625 -17.601562 4.515625 -17.1875 C 4.515625 -16.757812 4.367188 -16.394531 4.078125 -16.09375 C 3.796875 -15.800781 3.453125 -15.65625 3.046875 -15.65625 Z M 4.125 -13.46875 L 4.125 0 L 1.890625 0 L 1.890625 -13.46875 Z M 4.125 -13.46875 "/></g></g></g><g fill="#f7f7f7" fill-opacity="1"><g transform="translate(218.896682, 520.881619)"><g><path d="M 18.09375 -13.71875 C 19.132812 -13.71875 20.066406 -13.5 20.890625 -13.0625 C 21.710938 -12.625 22.359375 -11.972656 22.828125 -11.109375 C 23.304688 -10.242188 23.546875 -9.1875 23.546875 -7.9375 L 23.546875 0 L 21.328125 0 L 21.328125 -7.625 C 21.328125 -8.96875 20.992188 -9.992188 20.328125 -10.703125 C 19.671875 -11.410156 18.773438 -11.765625 17.640625 -11.765625 C 16.484375 -11.765625 15.5625 -11.390625 14.875 -10.640625 C 14.1875 -9.898438 13.84375 -8.828125 13.84375 -7.421875 L 13.84375 0 L 11.625 0 L 11.625 -7.625 C 11.625 -8.96875 11.289062 -9.992188 10.625 -10.703125 C 9.96875 -11.410156 9.070312 -11.765625 7.9375 -11.765625 C 6.769531 -11.765625 5.84375 -11.390625 5.15625 -10.640625 C 4.46875 -9.898438 4.125 -8.828125 4.125 -7.421875 L 4.125 0 L 1.890625 0 L 1.890625 -13.46875 L 4.125 -13.46875 L 4.125 -11.53125 C 4.570312 -12.226562 5.164062 -12.765625 5.90625 -13.140625 C 6.65625 -13.523438 7.476562 -13.71875 8.375 -13.71875 C 9.507812 -13.71875 10.507812 -13.460938 11.375 -12.953125 C 12.25 -12.441406 12.898438 -11.695312 13.328125 -10.71875 C 13.703125 -11.664062 14.320312 -12.398438 15.1875 -12.921875 C 16.050781 -13.453125 17.019531 -13.71875 18.09375 -13.71875 Z M 18.09375 -13.71875 "/></g></g></g><g fill="#f7f7f7" fill-opacity="1"><g transform="translate(246.052272, 520.881619)"><g><path d="M 3.046875 -15.65625 C 2.617188 -15.65625 2.257812 -15.800781 1.96875 -16.09375 C 1.675781 -16.394531 1.53125 -16.757812 1.53125 -17.1875 C 1.53125 -17.601562 1.675781 -17.957031 1.96875 -18.25 C 2.257812 -18.550781 2.617188 -18.703125 3.046875 -18.703125 C 3.453125 -18.703125 3.796875 -18.550781 4.078125 -18.25 C 4.367188 -17.957031 4.515625 -17.601562 4.515625 -17.1875 C 4.515625 -16.757812 4.367188 -16.394531 4.078125 -16.09375 C 3.796875 -15.800781 3.453125 -15.65625 3.046875 -15.65625 Z M 4.125 -13.46875 L 4.125 0 L 1.890625 0 L 1.890625 -13.46875 Z M 4.125 -13.46875 "/></g></g></g><g fill="#f7f7f7" fill-opacity="1"><g transform="translate(253.941679, 520.881619)"><g><path d="M 4.625 -11.625 L 4.625 -3.6875 C 4.625 -3.03125 4.757812 -2.566406 5.03125 -2.296875 C 5.3125 -2.023438 5.796875 -1.890625 6.484375 -1.890625 L 8.140625 -1.890625 L 8.140625 0 L 6.125 0 C 4.875 0 3.9375 -0.285156 3.3125 -0.859375 C 2.695312 -1.429688 2.390625 -2.375 2.390625 -3.6875 L 2.390625 -11.625 L 0.640625 -11.625 L 0.640625 -13.46875 L 2.390625 -13.46875 L 2.390625 -16.859375 L 4.625 -16.859375 L 4.625 -13.46875 L 8.140625 -13.46875 L 8.140625 -11.625 Z M 4.625 -11.625 "/></g></g></g><g fill="#f7f7f7" fill-opacity="1"><g transform="translate(264.730837, 520.881619)"><g><path d="M 14.1875 -7.25 C 14.1875 -6.820312 14.160156 -6.375 14.109375 -5.90625 L 3.34375 -5.90625 C 3.425781 -4.570312 3.878906 -3.53125 4.703125 -2.78125 C 5.535156 -2.039062 6.539062 -1.671875 7.71875 -1.671875 C 8.6875 -1.671875 9.492188 -1.894531 10.140625 -2.34375 C 10.785156 -2.789062 11.238281 -3.394531 11.5 -4.15625 L 13.90625 -4.15625 C 13.550781 -2.863281 12.832031 -1.8125 11.75 -1 C 10.664062 -0.1875 9.320312 0.21875 7.71875 0.21875 C 6.4375 0.21875 5.289062 -0.0664062 4.28125 -0.640625 C 3.28125 -1.210938 2.492188 -2.023438 1.921875 -3.078125 C 1.347656 -4.140625 1.0625 -5.367188 1.0625 -6.765625 C 1.0625 -8.148438 1.335938 -9.367188 1.890625 -10.421875 C 2.453125 -11.472656 3.234375 -12.28125 4.234375 -12.84375 C 5.242188 -13.40625 6.40625 -13.6875 7.71875 -13.6875 C 9 -13.6875 10.128906 -13.40625 11.109375 -12.84375 C 12.085938 -12.289062 12.84375 -11.523438 13.375 -10.546875 C 13.914062 -9.578125 14.1875 -8.476562 14.1875 -7.25 Z M 11.875 -7.71875 C 11.875 -8.570312 11.679688 -9.304688 11.296875 -9.921875 C 10.921875 -10.535156 10.410156 -11 9.765625 -11.3125 C 9.117188 -11.632812 8.40625 -11.796875 7.625 -11.796875 C 6.488281 -11.796875 5.523438 -11.4375 4.734375 -10.71875 C 3.941406 -10 3.488281 -9 3.375 -7.71875 Z M 11.875 -7.71875 "/></g></g></g><g fill="#f7f7f7" fill-opacity="1"><g transform="translate(281.810994, 520.881619)"><g><path d="M 1.0625 -6.78125 C 1.0625 -8.15625 1.335938 -9.363281 1.890625 -10.40625 C 2.453125 -11.445312 3.21875 -12.253906 4.1875 -12.828125 C 5.164062 -13.398438 6.257812 -13.6875 7.46875 -13.6875 C 8.519531 -13.6875 9.492188 -13.441406 10.390625 -12.953125 C 11.296875 -12.472656 11.988281 -11.84375 12.46875 -11.0625 L 12.46875 -18.1875 L 14.71875 -18.1875 L 14.71875 0 L 12.46875 0 L 12.46875 -2.53125 C 12.019531 -1.726562 11.359375 -1.066406 10.484375 -0.546875 C 9.617188 -0.0351562 8.609375 0.21875 7.453125 0.21875 C 6.253906 0.21875 5.164062 -0.0703125 4.1875 -0.65625 C 3.21875 -1.25 2.453125 -2.078125 1.890625 -3.140625 C 1.335938 -4.210938 1.0625 -5.425781 1.0625 -6.78125 Z M 12.46875 -6.765625 C 12.46875 -7.773438 12.257812 -8.65625 11.84375 -9.40625 C 11.4375 -10.164062 10.882812 -10.742188 10.1875 -11.140625 C 9.488281 -11.546875 8.722656 -11.75 7.890625 -11.75 C 7.054688 -11.75 6.296875 -11.550781 5.609375 -11.15625 C 4.921875 -10.757812 4.367188 -10.1875 3.953125 -9.4375 C 3.546875 -8.6875 3.34375 -7.800781 3.34375 -6.78125 C 3.34375 -5.75 3.546875 -4.851562 3.953125 -4.09375 C 4.367188 -3.332031 4.921875 -2.75 5.609375 -2.34375 C 6.296875 -1.945312 7.054688 -1.75 7.890625 -1.75 C 8.722656 -1.75 9.488281 -1.945312 10.1875 -2.34375 C 10.882812 -2.75 11.4375 -3.332031 11.84375 -4.09375 C 12.257812 -4.851562 12.46875 -5.742188 12.46875 -6.765625 Z M 12.46875 -6.765625 "/></g></g></g><g fill="#f7f7f7" fill-opacity="1"><g transform="translate(300.267309, 520.881619)"><g/></g></g><g fill="#f7f7f7" fill-opacity="1"><g transform="translate(308.672776, 520.881619)"><g><path d="M 4.125 -15.3125 L 4.125 -9.578125 L 10.375 -9.578125 L 10.375 -7.734375 L 4.125 -7.734375 L 4.125 -1.84375 L 11.109375 -1.84375 L 11.109375 0 L 1.890625 0 L 1.890625 -17.15625 L 11.109375 -17.15625 L 11.109375 -15.3125 Z M 4.125 -15.3125 "/></g></g></g><g fill="#f7f7f7" fill-opacity="1"><g transform="translate(323.123494, 520.881619)"><g><path d="M 1.0625 -6.78125 C 1.0625 -8.15625 1.335938 -9.363281 1.890625 -10.40625 C 2.453125 -11.445312 3.21875 -12.253906 4.1875 -12.828125 C 5.164062 -13.398438 6.257812 -13.6875 7.46875 -13.6875 C 8.519531 -13.6875 9.492188 -13.441406 10.390625 -12.953125 C 11.296875 -12.472656 11.988281 -11.84375 12.46875 -11.0625 L 12.46875 -18.1875 L 14.71875 -18.1875 L 14.71875 0 L 12.46875 0 L 12.46875 -2.53125 C 12.019531 -1.726562 11.359375 -1.066406 10.484375 -0.546875 C 9.617188 -0.0351562 8.609375 0.21875 7.453125 0.21875 C 6.253906 0.21875 5.164062 -0.0703125 4.1875 -0.65625 C 3.21875 -1.25 2.453125 -2.078125 1.890625 -3.140625 C 1.335938 -4.210938 1.0625 -5.425781 1.0625 -6.78125 Z M 12.46875 -6.765625 C 12.46875 -7.773438 12.257812 -8.65625 11.84375 -9.40625 C 11.4375 -10.164062 10.882812 -10.742188 10.1875 -11.140625 C 9.488281 -11.546875 8.722656 -11.75 7.890625 -11.75 C 7.054688 -11.75 6.296875 -11.550781 5.609375 -11.15625 C 4.921875 -10.757812 4.367188 -10.1875 3.953125 -9.4375 C 3.546875 -8.6875 3.34375 -7.800781 3.34375 -6.78125 C 3.34375 -5.75 3.546875 -4.851562 3.953125 -4.09375 C 4.367188 -3.332031 4.921875 -2.75 5.609375 -2.34375 C 6.296875 -1.945312 7.054688 -1.75 7.890625 -1.75 C 8.722656 -1.75 9.488281 -1.945312 10.1875 -2.34375 C 10.882812 -2.75 11.4375 -3.332031 11.84375 -4.09375 C 12.257812 -4.851562 12.46875 -5.742188 12.46875 -6.765625 Z M 12.46875 -6.765625 "/></g></g></g><g fill="#f7f7f7" fill-opacity="1"><g transform="translate(341.579814, 520.881619)"><g><path d="M 3.046875 -15.65625 C 2.617188 -15.65625 2.257812 -15.800781 1.96875 -16.09375 C 1.675781 -16.394531 1.53125 -16.757812 1.53125 -17.1875 C 1.53125 -17.601562 1.675781 -17.957031 1.96875 -18.25 C 2.257812 -18.550781 2.617188 -18.703125 3.046875 -18.703125 C 3.453125 -18.703125 3.796875 -18.550781 4.078125 -18.25 C 4.367188 -17.957031 4.515625 -17.601562 4.515625 -17.1875 C 4.515625 -16.757812 4.367188 -16.394531 4.078125 -16.09375 C 3.796875 -15.800781 3.453125 -15.65625 3.046875 -15.65625 Z M 4.125 -13.46875 L 4.125 0 L 1.890625 0 L 1.890625 -13.46875 Z M 4.125 -13.46875 "/></g></g></g><g fill="#f7f7f7" fill-opacity="1"><g transform="translate(349.469222, 520.881619)"><g><path d="M 4.625 -11.625 L 4.625 -3.6875 C 4.625 -3.03125 4.757812 -2.566406 5.03125 -2.296875 C 5.3125 -2.023438 5.796875 -1.890625 6.484375 -1.890625 L 8.140625 -1.890625 L 8.140625 0 L 6.125 0 C 4.875 0 3.9375 -0.285156 3.3125 -0.859375 C 2.695312 -1.429688 2.390625 -2.375 2.390625 -3.6875 L 2.390625 -11.625 L 0.640625 -11.625 L 0.640625 -13.46875 L 2.390625 -13.46875 L 2.390625 -16.859375 L 4.625 -16.859375 L 4.625 -13.46875 L 8.140625 -13.46875 L 8.140625 -11.625 Z M 4.625 -11.625 "/></g></g></g><g fill="#f7f7f7" fill-opacity="1"><g transform="translate(360.25838, 520.881619)"><g><path d="M 3.046875 -15.65625 C 2.617188 -15.65625 2.257812 -15.800781 1.96875 -16.09375 C 1.675781 -16.394531 1.53125 -16.757812 1.53125 -17.1875 C 1.53125 -17.601562 1.675781 -17.957031 1.96875 -18.25 C 2.257812 -18.550781 2.617188 -18.703125 3.046875 -18.703125 C 3.453125 -18.703125 3.796875 -18.550781 4.078125 -18.25 C 4.367188 -17.957031 4.515625 -17.601562 4.515625 -17.1875 C 4.515625 -16.757812 4.367188 -16.394531 4.078125 -16.09375 C 3.796875 -15.800781 3.453125 -15.65625 3.046875 -15.65625 Z M 4.125 -13.46875 L 4.125 0 L 1.890625 0 L 1.890625 -13.46875 Z M 4.125 -13.46875 "/></g></g></g><g fill="#f7f7f7" fill-opacity="1"><g transform="translate(368.147787, 520.881619)"><g><path d="M 7.765625 0.21875 C 6.503906 0.21875 5.359375 -0.0664062 4.328125 -0.640625 C 3.304688 -1.210938 2.503906 -2.023438 1.921875 -3.078125 C 1.347656 -4.140625 1.0625 -5.367188 1.0625 -6.765625 C 1.0625 -8.140625 1.359375 -9.351562 1.953125 -10.40625 C 2.546875 -11.46875 3.359375 -12.28125 4.390625 -12.84375 C 5.429688 -13.40625 6.585938 -13.6875 7.859375 -13.6875 C 9.140625 -13.6875 10.296875 -13.40625 11.328125 -12.84375 C 12.359375 -12.28125 13.171875 -11.472656 13.765625 -10.421875 C 14.367188 -9.367188 14.671875 -8.148438 14.671875 -6.765625 C 14.671875 -5.367188 14.363281 -4.140625 13.75 -3.078125 C 13.132812 -2.023438 12.300781 -1.210938 11.25 -0.640625 C 10.207031 -0.0664062 9.046875 0.21875 7.765625 0.21875 Z M 7.765625 -1.75 C 8.566406 -1.75 9.316406 -1.9375 10.015625 -2.3125 C 10.722656 -2.6875 11.296875 -3.25 11.734375 -4 C 12.171875 -4.757812 12.390625 -5.679688 12.390625 -6.765625 C 12.390625 -7.835938 12.175781 -8.75 11.75 -9.5 C 11.320312 -10.257812 10.765625 -10.820312 10.078125 -11.1875 C 9.390625 -11.5625 8.644531 -11.75 7.84375 -11.75 C 7.019531 -11.75 6.269531 -11.5625 5.59375 -11.1875 C 4.914062 -10.820312 4.367188 -10.257812 3.953125 -9.5 C 3.546875 -8.75 3.34375 -7.835938 3.34375 -6.765625 C 3.34375 -5.660156 3.539062 -4.726562 3.9375 -3.96875 C 4.34375 -3.21875 4.878906 -2.660156 5.546875 -2.296875 C 6.222656 -1.929688 6.960938 -1.75 7.765625 -1.75 Z M 7.765625 -1.75 "/></g></g></g><g fill="#f7f7f7" fill-opacity="1"><g transform="translate(385.719434, 520.881619)"><g><path d="M 8.453125 -13.71875 C 10.085938 -13.71875 11.410156 -13.21875 12.421875 -12.21875 C 13.441406 -11.226562 13.953125 -9.800781 13.953125 -7.9375 L 13.953125 0 L 11.75 0 L 11.75 -7.625 C 11.75 -8.96875 11.410156 -9.992188 10.734375 -10.703125 C 10.066406 -11.410156 9.148438 -11.765625 7.984375 -11.765625 C 6.804688 -11.765625 5.867188 -11.394531 5.171875 -10.65625 C 4.472656 -9.925781 4.125 -8.859375 4.125 -7.453125 L 4.125 0 L 1.890625 0 L 1.890625 -13.46875 L 4.125 -13.46875 L 4.125 -11.546875 C 4.570312 -12.234375 5.175781 -12.765625 5.9375 -13.140625 C 6.695312 -13.523438 7.535156 -13.71875 8.453125 -13.71875 Z M 8.453125 -13.71875 "/></g></g></g></svg>